# xmcd
#
# Track frame offsets:
# 150
# 11864
# 22480
# 35736
# 45318
# 56478
# 68104
# 78148
# 86910
# 95978
# 106786
# 119821
#
# Disc length: 1736 seconds
#
#
# Revision: 0
# Processed by: cddbd v1.5PL3 Copyright (c) Steve Scherf et al.
# Submitted via: FreeRIP 2.53 
#
DISCID=a706c60c
DTITLE=Webb Pierce - Greatest Hits/Best Performances
DYEAR=1900
DGENRE=Country
TTITLE0=Slowly
TTITLE1=There Stands The Glass
TTITLE2=Sparkling Brown Eyes
TTITLE3=Honky Tonk Song
TTITLE4=Yes, I Know Why
TTITLE5=Why Baby Why
TTITLE6=Fool, Fool, Fool
TTITLE7=I Ain't Never
TTITLE8=I'm Tired
TTITLE9=More and More
TTITLE10=Love, Love, Love
TTITLE11=Holiday For Love
EXTD=
EXTT0=
EXTT1=
EXTT2=
EXTT3=
EXTT4=
EXTT5=
EXTT6=
EXTT7=
EXTT8=
EXTT9=
EXTT10=
EXTT11=
PLAYORDER=
